<svg width="1200" height="900" viewBox="0 0 1200 900" fill="none" xmlns="http://www.w3.org/2000/svg">
  <rect width="1200" height="900" rx="48" fill="#0E1626"/>
  <rect x="48" y="48" width="1104" height="804" rx="36" fill="url(#paint0_linear)"/>
  <circle cx="970" cy="188" r="170" fill="#F97316" fill-opacity="0.22"/>
  <circle cx="230" cy="710" r="220" fill="#14B8A6" fill-opacity="0.18"/>
  <rect x="126" y="146" width="236" height="74" rx="18" fill="#111C31" stroke="#334155"/>
  <rect x="418" y="146" width="236" height="74" rx="18" fill="#111C31" stroke="#334155"/>
  <rect x="710" y="146" width="236" height="74" rx="18" fill="#111C31" stroke="#334155"/>
  <rect x="272" y="356" width="236" height="74" rx="18" fill="#111C31" stroke="#334155"/>
  <rect x="564" y="356" width="236" height="74" rx="18" fill="#111C31" stroke="#334155"/>
  <path d="M362 183H418" stroke="#F97316" stroke-width="10" stroke-linecap="round"/>
  <path d="M654 183H710" stroke="#14B8A6" stroke-width="10" stroke-linecap="round"/>
  <path d="M528 393H564" stroke="#F8FAFC" stroke-width="10" stroke-linecap="round"/>
  <path d="M244 220V393H272" stroke="#94A3B8" stroke-width="8" stroke-linecap="round"/>
  <path d="M828 220V600H942" stroke="#94A3B8" stroke-width="8" stroke-linecap="round"/>
  <rect x="942" y="548" width="140" height="104" rx="24" fill="#0F172A" stroke="#475569"/>
  <path d="M984 581H1040" stroke="#F97316" stroke-width="10" stroke-linecap="round"/>
  <path d="M984 617H1024" stroke="#14B8A6" stroke-width="10" stroke-linecap="round"/>
  <text x="124" y="664" fill="#E2E8F0" font-family="Arial, sans-serif" font-size="72" font-weight="700">CI/CD PIPELINE</text>
  <text x="124" y="732" fill="#94A3B8" font-family="Arial, sans-serif" font-size="30">GitHub • Jenkins • Docker • Deployment Flow</text>
  <defs>
    <linearGradient id="paint0_linear" x1="48" y1="48" x2="1152" y2="852" gradientUnits="userSpaceOnUse">
      <stop stop-color="#0B1220"/>
      <stop offset="1" stop-color="#111827"/>
    </linearGradient>
  </defs>
</svg>
